{
    "asset" : {
        "copyright" : "Tex",
        "generator" : "Khronos glTF Blender I/O v1.8.19",
        "version" : "2.0"
    },
    "extensionsUsed" : [
        "KHR_texture_transform"
    ],
    "extensionsRequired" : [
        "KHR_texture_transform"
    ],
    "scene" : 0,
    "scenes" : [
        {
            "name" : "Scene",
            "nodes" : [
                0
            ]
        }
    ],
    "nodes" : [
        {
            "mesh" : 0,
            "name" : "Bank",
            "rotation" : [
                0,
                0.18390993773937225,
                0,
                0.9829431176185608
            ],
            "scale" : [
                2.14214825630188,
                0.23109377920627594,
                2.14214825630188
            ],
            "translation" : [
                0.536076545715332,
                -2.005434274673462,
                -2.4110236167907715
            ]
        }
    ],
    "materials" : [
        {
            "doubleSided" : true,
            "name" : "Chrome.004",
            "normalTexture" : {
                "extensions" : {
                    "KHR_texture_transform" : {
                        "offset" : [
                            0,
                            0.5
                        ],
                        "scale" : [
                            0.5,
                            0.5
                        ]
                    }
                },
                "index" : 0,
                "scale" : 0.10000002384185791
            },
            "pbrMetallicRoughness" : {
                "roughnessFactor" : 0.32412242889404297
            }
        },
        {
            "doubleSided" : true,
            "name" : "Chrome.005",
            "normalTexture" : {
                "extensions" : {
                    "KHR_texture_transform" : {
                        "offset" : [
                            0,
                            0.5
                        ],
                        "scale" : [
                            0.5,
                            0.5
                        ]
                    }
                },
                "index" : 1,
                "scale" : 0.10000002384185791
            },
            "pbrMetallicRoughness" : {
                "roughnessFactor" : 0.32412242889404297
            }
        }
    ],
    "meshes" : [
        {
            "name" : "Cube.001",
            "primitives" : [
                {
                    "attributes" : {
                        "POSITION" : 0,
                        "NORMAL" : 1,
                        "TEXCOORD_0" : 2
                    },
                    "indices" : 3,
                    "material" : 0
                },
                {
                    "attributes" : {
                        "POSITION" : 4,
                        "NORMAL" : 5,
                        "TEXCOORD_0" : 6
                    },
                    "indices" : 7,
                    "material" : 1
                }
            ]
        }
    ],
    "textures" : [
        {
            "sampler" : 0,
            "source" : 0
        },
        {
            "sampler" : 0,
            "source" : 0
        }
    ],
    "images" : [
        {
            "mimeType" : "image/jpeg",
            "name" : "Plaster17_NRM_1K",
            "uri" : "Texture/Plaster17_NRM_1K.jpg"
        }
    ],
    "accessors" : [
        {
            "bufferView" : 0,
            "componentType" : 5126,
            "count" : 23692,
            "max" : [
                1.0982284545898438,
                19.482633590698242,
                0.2539891004562378
            ],
            "min" : [
                -1.1045639514923096,
                -0.7961033582687378,
                -1.7861862182617188
            ],
            "type" : "VEC3"
        },
        {
            "bufferView" : 1,
            "componentType" : 5126,
            "count" : 23692,
            "type" : "VEC3"
        },
        {
            "bufferView" : 2,
            "componentType" : 5126,
            "count" : 23692,
            "type" : "VEC2"
        },
        {
            "bufferView" : 3,
            "componentType" : 5123,
            "count" : 36984,
            "type" : "SCALAR"
        },
        {
            "bufferView" : 4,
            "componentType" : 5126,
            "count" : 989,
            "max" : [
                0.48332327604293823,
                16.42416000366211,
                -0.1242571473121643
            ],
            "min" : [
                -0.5192837119102478,
                14.029950141906738,
                -0.20775684714317322
            ],
            "type" : "VEC3"
        },
        {
            "bufferView" : 5,
            "componentType" : 5126,
            "count" : 989,
            "type" : "VEC3"
        },
        {
            "bufferView" : 6,
            "componentType" : 5126,
            "count" : 989,
            "type" : "VEC2"
        },
        {
            "bufferView" : 7,
            "componentType" : 5123,
            "count" : 1548,
            "type" : "SCALAR"
        }
    ],
    "bufferViews" : [
        {
            "buffer" : 0,
            "byteLength" : 284304,
            "byteOffset" : 0
        },
        {
            "buffer" : 0,
            "byteLength" : 284304,
            "byteOffset" : 284304
        },
        {
            "buffer" : 0,
            "byteLength" : 189536,
            "byteOffset" : 568608
        },
        {
            "buffer" : 0,
            "byteLength" : 73968,
            "byteOffset" : 758144
        },
        {
            "buffer" : 0,
            "byteLength" : 11868,
            "byteOffset" : 832112
        },
        {
            "buffer" : 0,
            "byteLength" : 11868,
            "byteOffset" : 843980
        },
        {
            "buffer" : 0,
            "byteLength" : 7912,
            "byteOffset" : 855848
        },
        {
            "buffer" : 0,
            "byteLength" : 3096,
            "byteOffset" : 863760
        }
    ],
    "samplers" : [
        {
            "magFilter" : 9729,
            "minFilter" : 9987
        }
    ],
    "buffers" : [
        {
            "byteLength" : 866856,
            "uri" : "Bank.bin"
        }
    ]
}
